<?xml version="1.0" encoding="UTF-8" standalone="no"?>
<svg xmlns="http://www.w3.org/2000/svg" width="48" height="48" viewBox="0 0 48 48" fill="none">
  <rect width="48" height="48" rx="8" fill="#3498db" opacity="0.8"/>
  <path d="M36 14h-6.5l-2.4-3.2c-0.4-0.5-1-0.8-1.6-0.8h-7c-0.6 0-1.2 0.3-1.6 0.8L14.5 14H8c-2.2 0-4 1.8-4 4v16c0 2.2 1.8 4 4 4h28c2.2 0 4-1.8 4-4V18c0-2.2-1.8-4-4-4zm-14 20c-4.4 0-8-3.6-8-8s3.6-8 8-8 8 3.6 8 8-3.6 8-8 8zm0-14c-3.3 0-6 2.7-6 6s2.7 6 6 6 6-2.7 6-6-2.7-6-6-6z" fill="white"/>
  <circle cx="22" cy="24" r="4" fill="white"/>
</svg>
